# xmcd
#
# Track frame offsets: 
#        200
#        11825
#        30425
#        50937
#        76737
#        96912
#        118925
#        150892
#
# Disc length: 2445 seconds
#
# Revision: 2
# Processed by: cddbd v1.5.2PL0 Copyright (c) Steve Scherf et al.
# Submitted via: ExactAudioCopy v0.99pb4
#
DISCID=59098b08
DTITLE=Duke Robillard - After Hours Swing Session
DYEAR=1992
DGENRE=Swing
TTITLE0=The Trouble With Me Is You
TTITLE1=Shivers
TTITLE2=I Can't Believe You're In Love With Me
TTITLE3=Sweet Georgia Brown
TTITLE4=Twist Top
TTITLE5=I'll Never Be The Same
TTITLE6=Tiny's Tempo
TTITLE7=Albi Ain't Here
EXTD=
EXTT0=
EXTT1=
EXTT2=
EXTT3=
EXTT4=
EXTT5=
EXTT6=
EXTT7=
PLAYORDER=
